# xmcd
#
# Track frame offsets:
# 150
# 15008
# 32038
# 45888
# 63386
# 83008
# 100266
# 122204
# 140902
# 157716
# 174542
# 190012
# 208098
# 223160
# 242278
# 260256
# 279218
# 296488
# 312858
# 329108
# 346462
#
# Disc length: 4767 seconds
#
#
# Revision: 0
# Processed by: cddbd v1.5.2PL0 Copyright (c) Steve Scherf et al.
# Submitted via: FreeRIP 2.96 
#
DISCID=25129d15
DTITLE=Milionario e Ze Rico - 
DYEAR=1900
DGENRE=Sertanejo
TTITLE0=Quarto triste
TTITLE1=Solidão
TTITLE2=Canção de um amor distante
TTITLE3=Praia deserta
TTITLE4=Sonhei com você
TTITLE5=Meu tesouro
TTITLE6=Mais uma noite vou dormir sem o meu bem
TTITLE7=Eterno Apaixonado
TTITLE8=Tudo bem
TTITLE9=Homem triste
TTITLE10=Amor de minha vida
TTITLE11=Vontade dividida
TTITLE12=Mentira tambem é verdade
TTITLE13=Decida
TTITLE14=Amada amante
TTITLE15=A Carta
TTITLE16=Volta pra casa
TTITLE17=Quem disse que esqueci
TTITLE18=Brigas
TTITLE19=Prá Sempre
TTITLE20=Sentimental demais
EXTD=
EXTT0=
EXTT1=
EXTT2=
EXTT3=
EXTT4=
EXTT5=
EXTT6=
EXTT7=
EXTT8=
EXTT9=
EXTT10=
EXTT11=
EXTT12=
EXTT13=
EXTT14=
EXTT15=
EXTT16=
EXTT17=
EXTT18=
EXTT19=
EXTT20=
PLAYORDER=
